<svg width="32" height="32" viewBox="0 0 32 32" fill="none" xmlns="http://www.w3.org/2000/svg">
<path d="M1.20755 8.15069H30.7925C31.459 8.15069 32 7.60971 32 6.94314C32 6.27658 31.459 5.7356 30.7925 5.7356H1.20755C0.540981 5.7356 0 6.27658 0 6.94314C0 7.60971 0.540981 8.15069 1.20755 8.15069Z" fill="#047496"/>
<path d="M1.20755 17.2071H30.7925C31.459 17.2071 32 16.6661 32 15.9995C32 15.333 31.459 14.792 30.7925 14.792H1.20755C0.540981 14.792 0 15.333 0 15.9995C0 16.6661 0.540981 17.2071 1.20755 17.2071Z" fill="#047496"/>
<path d="M1.20755 26.2641H30.7925C31.459 26.2641 32 25.7231 32 25.0565C32 24.39 31.459 23.849 30.7925 23.849H1.20755C0.540981 23.849 0 24.39 0 25.0565C0 25.7231 0.540981 26.2641 1.20755 26.2641Z" fill="#047496"/>
</svg>
